<?xml version="1.0" standalone="no"?>
<!DOCTYPE svg PUBLIC "-//W3C//DTD SVG 20010904//EN"
 "http://www.w3.org/TR/2001/REC-SVG-20010904/DTD/svg10.dtd">
<svg version="1.0" xmlns="http://www.w3.org/2000/svg"
 width="100.000000pt" height="100.000000pt" viewBox="0 0 100.000000 100.000000"
 preserveAspectRatio="xMidYMid meet">
<metadata>
Created by potrace 1.14, written by Peter Selinger 2001-2017
</metadata>
<g transform="translate(0.000000,100.000000) scale(0.100000,-0.100000)"
fill="#000000" stroke="none">
<path d="M25 974 l-25 -27 0 -367 0 -367 25 -27 c21 -23 31 -26 92 -26 57 0
108 -13 321 -80 140 -44 266 -80 282 -80 45 0 68 28 94 115 38 128 157 506
172 550 34 99 15 119 -165 175 l-141 43 0 34 c0 24 -8 41 -26 58 l-27 25 -289
0 -289 0 -24 -26z m603 -26 c17 -17 17 -719 0 -736 -17 -17 -559 -17 -576 0
-17 17 -17 719 0 736 17 17 559 17 576 0z m138 -134 c43 -14 88 -27 98 -29 52
-12 86 -28 91 -45 6 -19 -190 -663 -209 -688 -14 -19 -52 -11 -251 53 l-170
54 151 1 c146 0 152 1 178 25 l26 24 0 316 c0 173 2 315 4 315 2 0 39 -12 82
-26z"/>
<path d="M505 873 c-9 -26 -23 -63 -31 -80 -11 -28 -12 -33 0 -33 8 0 16 8 19
19 3 13 13 17 33 16 42 -3 44 -4 44 -20 0 -8 5 -15 10 -15 6 0 10 6 10 13 0
23 -47 141 -58 145 -5 1 -18 -19 -27 -45z m44 -45 c1 -20 -7 -22 -28 -9 -13 8
-13 14 -2 38 13 26 14 27 22 8 4 -11 8 -28 8 -37z"/>
<path d="M306 690 c-38 -34 -66 -78 -66 -104 0 -24 29 -46 60 -46 28 0 29 -1
15 -27 -14 -26 -13 -28 8 -34 12 -3 30 -3 39 -1 16 4 16 8 4 36 -13 32 -13 32
13 28 36 -5 66 28 57 64 -4 14 -26 46 -50 71 l-42 46 -38 -33z"/>
<path d="M110 323 c15 -42 32 -79 38 -81 5 -1 18 19 28 45 9 26 23 63 30 81
11 27 11 32 -1 32 -7 0 -15 -8 -17 -17 -5 -25 -69 -28 -75 -2 -3 10 -11 19
-18 19 -8 0 -4 -24 15 -77z m59 3 c0 -6 -4 -20 -8 -31 -8 -19 -8 -19 -20 4 -7
12 -10 29 -7 37 6 16 36 8 35 -10z"/>
<path d="M796 684 c-27 -36 -45 -68 -41 -72 3 -4 12 0 18 9 17 23 77 6 77 -21
0 -11 5 -20 11 -20 7 0 9 23 5 73 -3 39 -5 78 -6 85 0 24 -17 11 -64 -54z m51
-14 c3 -23 -6 -30 -30 -21 -16 6 -16 8 -1 29 17 25 26 23 31 -8z"/>
</g>
</svg>
